<?xml version="1.0" encoding="UTF-8"?>
<svg version="1.1" xmlns="http://www.w3.org/2000/svg" width="225" height="225">
<path d="M0 0 C74.25 0 148.5 0 225 0 C225 74.25 225 148.5 225 225 C150.75 225 76.5 225 0 225 C0 150.75 0 76.5 0 0 Z " fill="#FEFEFE" transform="translate(0,0)"/>
<path d="M0 0 C10.25787499 -0.1162134 20.51559154 -0.20487679 30.77399254 -0.25906086 C35.53820543 -0.28507599 40.30196558 -0.32032496 45.06591797 -0.37719727 C49.6695458 -0.43180724 54.2727401 -0.46148124 58.87666702 -0.47438622 C60.6268559 -0.48357437 62.37702295 -0.50151622 64.1270256 -0.52865028 C82.21724098 -0.7978059 82.21724098 -0.7978059 90 5 C92.25390625 7.38671875 92.25390625 7.38671875 93.5625 9.6875 C94.01753906 10.45449219 94.47257812 11.22148438 94.94140625 12.01171875 C97.14011675 16.14140009 97.13820095 19.46534263 97.12597656 24.08642578 C97.1278447 24.92242813 97.12971283 25.75843048 97.13163757 26.61976624 C97.1356472 28.43950212 97.13771693 30.25924305 97.13809967 32.07898331 C97.14151164 35.95168181 97.16287402 39.8242119 97.18333054 43.69685173 C97.22135284 50.90990203 97.25261954 58.12277561 97.25048828 65.3359375 C97.24969963 70.35055721 97.27313468 75.36456472 97.3123703 80.37902451 C97.32281243 82.28706991 97.32436753 84.19518613 97.31671906 86.10324478 C97.30705696 88.78190056 97.328356 91.458717 97.35644531 94.13720703 C97.34624863 94.91881699 97.33605194 95.70042694 97.32554626 96.50572205 C97.43357157 102.28175533 99.11075323 106.65317001 103 111 C107.28770597 113.53752931 111.12541073 113.5331582 116 113 C119.84782548 111.71739151 121.4683675 110.83893298 123.64199829 107.40887451 C125.24898446 103.37499579 125.40475134 99.85263408 125.35302734 95.58300781 C125.35518753 94.75938751 125.35734772 93.93576721 125.35957336 93.08718872 C125.36265089 91.30626632 125.35908247 89.52532252 125.34955978 87.74442291 C125.3357668 84.91814834 125.34229206 82.09257172 125.35440063 79.26629639 C125.38528047 71.23347332 125.38054271 63.20081417 125.36035156 55.16796875 C125.34938849 50.24604486 125.36272217 45.32464514 125.39024734 40.40279388 C125.39566172 38.53545199 125.39169139 36.66805681 125.37784958 34.80075836 C125.22619855 14.09734724 125.22619855 14.09734724 132.8140564 6.08428955 C138.30899854 0.92066522 143.45330202 -0.30050503 150.91137695 -0.22705078 C151.69239273 -0.22734283 152.47340851 -0.22763489 153.27809143 -0.22793579 C155.84826945 -0.22654736 158.41815414 -0.21100921 160.98828125 -0.1953125 C162.77475323 -0.19158064 164.56122726 -0.18873448 166.34770203 -0.18673706 C171.0412871 -0.17911424 175.73474768 -0.15947736 180.42828369 -0.1373291 C185.22105221 -0.11684155 190.01384091 -0.10772912 194.80664062 -0.09765625 C204.20448167 -0.0762302 213.60223047 -0.04211056 223 0 C221.42937555 4.93317018 219.84026917 9.7028144 217.46875 14.3203125 C216.99324707 15.25705811 216.51774414 16.19380371 216.02783203 17.15893555 C215.27155518 18.62713745 215.27155518 18.62713745 214.5 20.125 C211.22580333 26.54152294 207.98662063 32.95836565 204.9765625 39.50390625 C204.49638672 40.54208496 204.01621094 41.58026367 203.52148438 42.64990234 C202.61219781 44.62775958 201.71443239 46.61096748 200.83007812 48.60009766 C200.41435547 49.49905762 199.99863281 50.39801758 199.5703125 51.32421875 C199.21727051 52.10885498 198.86422852 52.89349121 198.50048828 53.7019043 C196.43183348 56.8701841 194.36238839 59.26526374 191 61 C187.36788585 61.69117833 183.81309187 61.65076825 180.125 61.6015625 C179.08230957 61.60956879 178.03961914 61.61757507 176.96533203 61.62582397 C173.64315665 61.6488532 170.32220785 61.63944438 167 61.625 C163.67802225 61.62114843 160.35658516 61.62462296 157.03466797 61.64559937 C154.9712241 61.65765685 152.90762827 61.6550718 150.84423828 61.63589478 C145.55084212 61.65645528 141.41511919 61.73594089 137 65 C134.14410939 69.59475025 133.57686782 73.48144224 133.64697266 78.77441406 C133.64373238 79.90743202 133.64373238 79.90743202 133.64042664 81.06333923 C133.63735113 82.69529521 133.64091153 84.32727457 133.65044022 85.95920563 C133.66424709 88.55026627 133.65769996 91.14056676 133.64559937 93.73162842 C133.61473968 101.09538852 133.61944712 108.45896948 133.63964844 115.82275391 C133.65062007 120.33621269 133.63726012 124.84910047 133.60975266 129.36248016 C133.60434331 131.07352092 133.60829557 132.78461989 133.62215042 134.4956131 C133.7667734 152.57012193 133.7667734 152.57012193 128 160 C121.94023775 165.61100475 117.09766999 167.37533557 108.85546875 167.27734375 C102.97398932 166.70609199 99.30416263 164.30416263 95.1875 160.1875 C91.04636905 154.15328061 89.55112024 149.34387045 89.63110352 142.06445312 C89.6254538 140.92398781 89.6254538 140.92398781 89.61968994 139.76048279 C89.61328972 138.1214572 89.61355701 136.48239444 89.61987495 134.84336853 C89.62903525 132.2446534 89.61870612 129.6466521 89.60325623 127.04797363 C89.56328887 119.66399145 89.56195396 112.28006852 89.56420898 104.89599609 C89.56426019 100.36848277 89.54504586 95.84135668 89.51487541 91.31394958 C89.50408828 88.76181637 89.51615588 86.21043387 89.52870178 83.6583252 C89.51979359 82.08405832 89.50971789 80.50979748 89.49829102 78.93554688 C89.50803452 78.23300278 89.51777802 77.53045868 89.52781677 76.80662537 C89.44984743 71.39915199 87.96394598 68.36625829 85 64 C80.53706504 60.96701838 74.65000336 61.72128203 69.44140625 61.7265625 C67.34309359 61.70627676 65.24478634 61.68542604 63.14648438 61.6640625 C59.85045805 61.641455 56.55464526 61.62498607 53.25854492 61.61914062 C50.06910984 61.60961068 46.88062747 61.57583192 43.69140625 61.5390625 C42.21928429 61.54663071 42.21928429 61.54663071 40.71742249 61.55435181 C34.99047742 61.47218044 31.47670325 60.94203268 27 57 C25.38998938 54.54872257 24.0883199 52.29843761 22.8125 49.6875 C22.44012207 48.95547363 22.06774414 48.22344727 21.68408203 47.46923828 C20.43385459 44.98985177 19.2136917 42.49746655 18 40 C17.32348389 38.61240479 17.32348389 38.61240479 16.63330078 37.19677734 C13.80625054 31.37730078 11.02321737 25.53796493 8.26611328 19.68505859 C7.09909358 17.21014872 5.92400263 14.73927183 4.74609375 12.26953125 C4.10115781 10.90904594 3.4565952 9.54838355 2.8125 8.1875 C2.26207031 7.02605469 1.71164063 5.86460938 1.14453125 4.66796875 C-0 2 -0 2 0 0 Z " fill="#E2361E" transform="translate(1,33)"/>
</svg>
