<?xml version="1.0" encoding="UTF-8"?>
<svg version="1.1" xmlns="http://www.w3.org/2000/svg" width="1512" height="1512">
<path d="M0 0 C498.96 0 997.92 0 1512 0 C1512 498.96 1512 997.92 1512 1512 C1013.04 1512 514.08 1512 0 1512 C0 1013.04 0 514.08 0 0 Z " fill="#FF4800" transform="translate(0,0)"/>
<path d="M0 0 C0.80953125 0.62519531 1.6190625 1.25039063 2.453125 1.89453125 C20.15758144 16.59665854 30.74729907 38.32540596 33 61 C33.50640232 70.29263182 33.35090175 79.60785172 33.29296875 88.91015625 C33.28736221 91.57629643 33.2829492 94.24241227 33.28010559 96.90855408 C33.27086096 103.162525 33.24635254 109.41633455 33.21605712 115.6702351 C33.18227368 122.80227238 33.16596757 129.93431825 33.15097082 137.06641591 C33.1197941 151.71102566 33.06718494 166.35550998 33 181 C34.02722703 180.99815641 35.05445406 180.99631283 36.11280918 180.99441338 C61.15366607 180.94993535 86.19451782 180.91711108 111.23540592 180.89637566 C123.34518402 180.88608062 135.45493596 180.87205427 147.56469727 180.84912109 C158.12447024 180.82913285 168.68422426 180.81627069 179.24401563 180.81182301 C184.83085855 180.80922482 190.41764726 180.8031551 196.00447273 180.78853989 C201.27309956 180.77486998 206.54165032 180.77079622 211.8102932 180.77378464 C213.7342279 180.77323866 215.6581654 180.76931768 217.58208466 180.76158905 C248.39444043 180.64398168 273.14613238 187.57706904 295.51953125 209.46484375 C313.73607297 228.6123842 319.69111677 251.05368696 319.3359375 276.703125 C319.11724108 282.91670446 318.19148949 288.90586888 317 295 C316.80897705 295.99153076 316.6179541 296.98306152 316.42114258 298.00463867 C312.50486565 317.24288955 300.74957599 335.36679046 285 347 C282.52066571 348.58985946 279.98527363 350.01195719 277.375 351.375 C276.79733887 351.68477783 276.21967773 351.99455566 275.62451172 352.3137207 C261.20249671 359.30408013 245.62894962 359.57032797 229.96655273 359.45410156 C227.80643739 359.45297061 225.64632051 359.45361177 223.48620605 359.45587158 C217.67527664 359.45700999 211.86468367 359.43364325 206.05383182 359.40557575 C199.96136647 359.38041527 193.86889173 359.37820862 187.77638245 359.37347412 C176.26314398 359.36108714 164.75005911 359.32832383 153.23688799 359.28807616 C140.11947364 359.24322473 127.0020516 359.22133789 113.88457954 359.20129442 C86.92296818 359.1595871 59.96149273 359.0893189 33 359 C33.03731527 386.58355926 33.09739266 414.16698985 33.18390274 441.7504406 C33.22355951 454.56051697 33.25601946 467.37053309 33.27099609 480.18066406 C33.28408231 491.35771678 33.31122273 502.53463618 33.35461307 513.71161377 C33.37707236 519.61907988 33.39292012 525.52638253 33.39188385 531.43389511 C33.39289148 592.32594434 43.62030816 643.96394518 87.5625 689 C110.08501818 711.51176629 139.66251085 726.15056166 170.375 733.75 C171.15085449 733.94851563 171.92670898 734.14703125 172.72607422 734.3515625 C188.69712631 738.11172957 205.11334644 738.28460576 221.42929077 738.27439499 C224.90585352 738.27341108 228.38212246 738.28658627 231.85864258 738.30337524 C241.72833069 738.3491018 251.59798261 738.37423709 261.46777344 738.38085938 C267.54582561 738.38591594 273.62356275 738.41036074 279.70150757 738.44618607 C281.99122209 738.45587529 284.28098049 738.45837668 286.57070923 738.45301437 C316.89239455 738.38528381 340.43760369 744.63975734 362.6875 766.1875 C380.24651779 783.84516395 387.3125 806.1088329 387.3125 830.59985352 C386.99327887 854.67021502 376.9969417 874.42495204 360.6875 891.75 C343.84639909 907.90915492 320.84126277 917.4031479 297.48071289 917.24291992 C296.58627975 917.24481827 295.69184662 917.24671661 294.77030945 917.24867249 C291.83766659 917.25234988 288.90527686 917.24170403 285.97265625 917.23046875 C283.8992872 917.2292732 281.8259176 917.22882458 279.75254822 917.2290802 C275.4060425 917.22751955 271.05961962 917.21927307 266.71313477 917.20581055 C261.22446469 917.18899976 255.73588598 917.18508693 250.24719334 917.18561745 C191.65848361 917.18434029 191.65848361 917.18434029 169.4375 914.75 C168.24608398 914.62141602 167.05466797 914.49283203 165.82714844 914.36035156 C101.59809068 907.00094907 38.75042899 880.36782246 -11 839 C-11.94101562 838.24847656 -12.88203125 837.49695312 -13.8515625 836.72265625 C-31.68445789 822.43122319 -49.06896597 806.14274199 -63 788 C-64.41420644 786.31043768 -65.83100003 784.62303842 -67.25 782.9375 C-77.92619955 769.82898368 -87.20053408 755.95969959 -95.65380859 741.32958984 C-96.87919745 739.20904931 -98.11947028 737.09804327 -99.36328125 734.98828125 C-115.24932002 707.74660203 -126.26037805 678.51216621 -134 648 C-134.23557617 647.08476563 -134.47115234 646.16953125 -134.71386719 645.2265625 C-141.70626924 617.6958497 -144.16432283 590.06394572 -144.11352539 561.75634766 C-144.11324284 559.53756207 -144.11340257 557.31877638 -144.1139679 555.09999084 C-144.11425323 549.11546526 -144.10839928 543.13095997 -144.10139394 537.14643908 C-144.09511635 530.87776831 -144.09455313 524.60909701 -144.09336853 518.34042358 C-144.09061977 507.83143794 -144.08438583 497.32245852 -144.07543945 486.81347656 C-144.06624019 475.99609412 -144.0591717 465.1787137 -144.05493164 454.36132812 C-144.05466892 453.69293225 -144.05440619 453.02453637 -144.05413551 452.33588608 C-144.05283034 448.98225894 -144.05156666 445.62863179 -144.05032361 442.27500463 C-144.03988854 414.51666461 -144.02231427 386.75833283 -144 359 C-145.0422876 359.01571045 -146.0845752 359.0314209 -147.15844727 359.04760742 C-151.10026023 359.10273667 -155.04204073 359.13664518 -158.98413086 359.16479492 C-160.67624682 359.17969567 -162.36832548 359.20002334 -164.06030273 359.22631836 C-191.80964422 359.64613931 -214.84492282 351.54773251 -235 332 C-253.41719838 312.72682988 -259.73948897 289.50411013 -259.30078125 263.42578125 C-258.62102542 244.17162749 -250.31202494 224.92507872 -237 211 C-236.13375 210.05640625 -235.2675 209.1128125 -234.375 208.140625 C-228.47122586 201.93495332 -222.48594308 197.14222184 -215 193 C-213.93007813 192.39285156 -212.86015625 191.78570312 -211.7578125 191.16015625 C-195.12499023 182.24028671 -178.01408929 180.82881701 -159.4375 180.9375 C-157.93685045 180.9425254 -156.43619928 180.94708647 -154.93554688 180.95117188 C-151.29033023 180.96209424 -147.64517578 180.97930144 -144 181 C-144.00368717 180.3583811 -144.00737434 179.7167622 -144.01117325 179.0557003 C-144.09981384 163.38688021 -144.16584957 147.71814828 -144.20724869 132.04913902 C-144.22780517 124.47146937 -144.25579202 116.8939679 -144.30175781 109.31640625 C-144.34183897 102.70574433 -144.36748295 96.09520431 -144.37635398 89.48442423 C-144.38153309 85.9894968 -144.39355793 82.49491785 -144.42292023 79.000103 C-144.45556227 75.0825257 -144.45594591 71.16527796 -144.45410156 67.24755859 C-144.46848267 66.11034866 -144.48286377 64.97313873 -144.49768066 63.8014679 C-144.4549571 55.34912631 -142.65487307 47.99976976 -140 40 C-139.54902136 38.63536149 -139.54902136 38.63536149 -139.08893204 37.24315453 C-134.98160275 25.37685608 -126.7738208 14.78876768 -118 6 C-117.25363281 5.24203125 -116.50726562 4.4840625 -115.73828125 3.703125 C-83.26801547 -27.42539426 -34.60793827 -26.79776842 0 0 Z " fill="#FFFEFE" transform="translate(661,309)"/>
<path d="M0 0 C0.77601563 0.40460449 1.55203125 0.80920898 2.3515625 1.22607422 C21.70235467 11.3913089 39.3836635 24.53237998 55.28125 39.4921875 C57.20566551 41.26729491 59.12229851 42.94457858 61.14453125 44.59765625 C63.41832382 46.51062811 65.29678066 48.29667817 67.1875 50.5625 C69.20598171 52.94236927 71.24435346 55.25629256 73.3984375 57.515625 C91.28996084 76.29910112 105.03658086 98.57530237 116 122 C116.4942749 123.03858154 116.4942749 123.03858154 116.99853516 124.09814453 C129.54636284 150.59200356 136.93217517 178.8767924 140 208 C140.0935376 208.88574707 140.1870752 209.77149414 140.28344727 210.68408203 C140.9220865 217.16704624 141.24379528 223.61179224 141.3125 230.125 C141.34150391 231.04925781 141.37050781 231.97351563 141.40039062 232.92578125 C141.48853881 242.54071413 138.29989293 249.29870226 131.79296875 256.27734375 C124.61713695 263.17177038 117.19861115 264.52544145 107.55078125 264.3828125 C99.86607757 263.55431859 93.97081796 259.84802113 89 254 C88.29875 253.236875 87.5975 252.47375 86.875 251.6875 C81.07038244 243.36754817 81.16125013 233.82572426 80.5 224.0625 C79.3961549 208.10488889 77.45790918 192.64086931 72.875 177.25 C72.5764209 176.24122803 72.2778418 175.23245605 71.97021484 174.19311523 C55.73919322 121.16209189 19.21858988 78.32645836 -29.46875 52.31640625 C-57.31341237 37.83546301 -87.40500559 30.1359637 -118.71508789 29.12182617 C-127.61860762 28.81747829 -134.42273369 27.82950779 -142 23 C-143.0725 22.319375 -144.145 21.63875 -145.25 20.9375 C-150.55653316 16.04032797 -153.5209455 9.27523787 -154.55078125 2.234375 C-154.92829875 -8.42240466 -152.41885956 -15.51908528 -145.3125 -23.375 C-113.74120955 -52.04451743 -32.14910824 -16.98295894 0 0 Z " fill="#FFFEFE" transform="translate(1120,282)"/>
<path d="M0 0 C0.64018066 0.31195313 1.28036133 0.62390625 1.93994141 0.9453125 C17.25158699 8.47299636 30.10752886 18.78611072 42 31 C42.48339844 31.43828125 42.96679688 31.8765625 43.46484375 32.328125 C69.33016144 56.42851513 81.16178164 93.36302731 83.22265625 127.7109375 C83.4721506 137.01816151 81.93995285 144.61519376 76 152 C69.20041767 159.04188371 63.42707318 162.06977861 53.625 162.4375 C44.65907223 162.20893637 37.28564513 159.43182293 31 153 C24.63927308 144.60171432 23.70846573 136.22498709 22.6875 126 C20.13501667 103.09394827 10.65052449 80.51310384 -7.71875 65.64453125 C-24.61292111 53.46568529 -41.03160691 46.61816921 -61.875 45.0625 C-69.51115658 44.47473618 -75.61372598 43.55206114 -82 39 C-83.0725 38.319375 -84.145 37.63875 -85.25 36.9375 C-90.55653316 32.04032797 -93.5209455 25.27523787 -94.55078125 18.234375 C-94.91519465 7.94750532 -92.65090102 0.69530294 -85.6875 -6.875 C-64.62811928 -26.32854559 -22.04339538 -10.93839583 0 0 Z " fill="#FFFEFD" transform="translate(1060,384)"/>
</svg>
