<?xml version="1.0" encoding="utf-8"?>
<!-- Designed by Vexels.com - 2016 All Rights Reserved - https://vexels.com/terms-and-conditions/  -->

<svg version="1.1" id="Capa_1" xmlns="http://www.w3.org/2000/svg" xmlns:xlink="http://www.w3.org/1999/xlink" x="0px" y="0px"
	 width="1200px" height="1200px" viewBox="0 0 1200 1200" enable-background="new 0 0 1200 1200" xml:space="preserve">
<g id="VEXELS">
</g>
<g>
	<g id="BACKGROUND">
		<g>
			<circle fill="#304E6C" cx="599.999" cy="600" r="549.998"/>
			<path fill="#FFFFFF" d="M478.845,536.78c-30.568,0-59.627,0-89.427,0c0-30.355,0-60.175,0-90.022
				c10.565-1.855,21.163-2.875,31.3-5.617c51.594-13.966,87.346-60.416,88.125-114.133c0.287-20.009,0.043-40.017,0.043-60.832
				c40.359,0,80.174,0,120.854,0c0,49.388,0,98.7,0,149.207c50.391,0,99.926,0,150.064,0c0,40.789,0,80.386,0,121.176
				c-49.539,0-99.08,0-149.682,0c0,4.844,0,8.494,0,12.156c0,73.549,0.227,147.098-0.16,220.656
				c-0.102,19.153,8.566,32.209,24.381,41.187c26.363,14.979,54.6,13.935,83.006,8.229c26.082-5.233,49.582-16.665,72.254-33.276
				c0.367,3.875,0.83,6.445,0.84,9.006c0.049,29.734-0.105,59.47,0.141,89.199c0.053,5.688-1.652,9.069-6.711,11.91
				c-39.684,22.236-82.285,34.653-127.529,37.302c-38.578,2.251-77.016,1.005-113.77-13.036
				c-34.247-13.085-62.281-33.891-76.634-68.737c-4.612-11.199-6.685-24.197-6.765-36.393c-0.558-88.575-0.311-177.161-0.32-265.739
				C478.845,545.344,478.845,541.638,478.845,536.78z"/>
			<g opacity="0.2">
				<path d="M779.81,415.75v120.818H630.103v12.146c0,73.529,0.252,147.098-0.16,220.676c-0.082,19.134,8.576,32.17,24.377,41.152
					c26.361,14.983,54.598,13.93,83.039,8.248c26.08-5.248,49.563-16.655,72.225-33.271c0.367,3.851,0.859,6.416,0.859,9.016
					c0.039,29.696-0.121,59.431,0.117,89.165c0.086,5.683-1.625,9.104-6.697,11.905c-39.697,22.265-82.266,34.692-127.529,37.33
					c-25.666,1.508-51.227,1.421-76.335-2.879c-12.63-2.194-25.145-5.484-37.454-10.156c-17.664-6.746-33.68-15.563-47.043-27.31
					l84.497,84.508l151.739,151.731c178.426-51.154,319.717-190.125,374.07-367.083L779.81,415.75z"/>
				<polygon points="629.74,415.382 779.443,415.382 599.999,235.943 599.999,266.175 629.74,266.175 				"/>
			</g>
			<path opacity="0.1" enable-background="new    " d="M810.56,883.709c0.086,5.683-1.625,9.099-6.697,11.896
				c-39.697,22.265-82.266,34.697-127.529,37.34c-25.666,1.503-51.227,1.421-76.335-2.889V266.175h29.741v149.207h149.703
				l0.367,0.367v120.818H630.103v12.146c0,73.529,0.252,147.098-0.16,220.676c-0.082,19.134,8.576,32.17,24.377,41.152
				c26.361,14.983,54.598,13.93,83.039,8.248c26.08-5.248,49.563-16.655,72.225-33.271c0.367,3.851,0.859,6.416,0.859,9.016
				C810.482,824.231,810.318,853.965,810.56,883.709z"/>
			<polygon fill="#FFFFFF" points="779.81,415.382 779.81,415.75 779.443,415.382 			"/>
		</g>
	</g>
</g>
</svg>
